<svg xmlns="http://www.w3.org/2000/svg" version="1.1" xmlns:xlink="http://www.w3.org/1999/xlink" xmlns:svgjs="http://svgjs.dev/svgjs" width="1000" height="1000" viewBox="0 0 1000 1000"><rect width="1000" height="1000" fill="#000000"></rect><g transform="matrix(0.7,0,0,0.7,149.57576275754042,436.3899560339339)"><svg viewBox="0 0 396 72" data-background-color="#457dbb" preserveAspectRatio="xMidYMid meet" height="181" width="1000" xmlns="http://www.w3.org/2000/svg" xmlns:xlink="http://www.w3.org/1999/xlink"><g id="tight-bounds" transform="matrix(1,0,0,1,0.23999789825063544,0.14777598671196301)"><svg viewBox="0 0 395.52 71.70444130775232" height="71.70444130775232" width="395.52"><g><svg viewBox="0 0 457.1303067143675 82.87387046873782" height="71.70444130775232" width="395.52"><g transform="matrix(1,0,0,1,61.610306714367525,11.453624645100525)"><svg viewBox="0 0 395.52 59.96662117853677" height="59.96662117853677" width="395.52"><g><svg viewBox="0 0 395.52 59.96662117853677" height="59.96662117853677" width="395.52"><g><svg viewBox="0 0 395.52 42.31728813559322" height="42.31728813559322" width="395.52"><g transform="matrix(1,0,0,1,0,0)"><svg width="395.52" viewBox="0.8500000238418579 -34.79999923706055 330.3699951171875 35.349998474121094" height="42.31728813559322" data-palette-color="#30017e"><path d="M23.05 0L20.1 0 17.7-9.4 6.1-9.4 3.7 0 0.85 0 10.15-34.25 13.75-34.25 23.05 0ZM11.9-31.85L6.75-11.8 17.05-11.8 11.9-31.85ZM28.3-34.25L31.15-34.25 31.15-2.6 42.8-2.6 42.45 0 28.3 0 28.3-34.25ZM66.2-34.25L66.2-8.9Q66.2-4.8 63.77-2.13 61.35 0.55 56.8 0.55L56.8 0.55Q52.2 0.55 49.8-2.1 47.4-4.75 47.4-8.9L47.4-8.9 47.4-34.25 50.25-34.25 50.25-9.15Q50.25-5.75 51.87-3.88 53.5-2 56.8-2L56.8-2Q60.1-2 61.7-3.9 63.3-5.8 63.3-9.15L63.3-9.15 63.3-34.25 66.2-34.25ZM96.64-34.25L99.29 0 96.59 0 95.34-16.45Q94.79-23.4 94.39-31.4L94.39-31.4 87.54-4.05 84.79-4.05 77.64-31.4Q77.64-28.05 76.94-18.35L76.94-18.35Q76.94-17.75 76.84-16.55L76.84-16.55 75.69 0 72.99 0 75.59-34.25 79.49-34.25 86.19-7.5 92.69-34.25 96.64-34.25ZM125.44-34.25L125.44 0 121.64 0 108.94-31Q109.34-26.3 109.34-19.35L109.34-19.35 109.34 0 106.64 0 106.64-34.25 110.44-34.25 123.09-3.25Q122.69-9.25 122.69-13.3L122.69-13.3 122.69-34.25 125.44-34.25ZM134.19-34.25L137.04-34.25 137.04 0 134.19 0 134.19-34.25ZM175.88-34.25L175.88 0 172.08 0 159.38-31Q159.78-26.3 159.78-19.35L159.78-19.35 159.78 0 157.08 0 157.08-34.25 160.88-34.25 173.53-3.25Q173.13-9.25 173.13-13.3L173.13-13.3 173.13-34.25 175.88-34.25ZM184.63-34.25L199.18-34.25 198.88-31.8 187.48-31.8 187.48-18.95 197.33-18.95 197.33-16.55 187.48-16.55 187.48-2.45 199.43-2.45 199.43 0 184.63 0 184.63-34.25ZM201.83-34.25L221.33-34.25 220.98-31.75 212.93-31.75 212.93 0 210.03 0 210.03-31.75 201.83-31.75 201.83-34.25ZM251.33-34.25L254.08-34.25 248.08 0 244.33 0 238.53-30.95 232.73 0 229.08 0 223.08-34.25 225.88-34.25 230.98-2.7 236.88-34.25 240.23-34.25 246.18-2.7 251.33-34.25ZM269.72-34.8Q275.12-34.8 278.22-30.38 281.32-25.95 281.32-17.1L281.32-17.1Q281.32-8.4 278.25-3.93 275.17 0.55 269.72 0.55L269.72 0.55Q264.37 0.55 261.25-3.9 258.12-8.35 258.12-17.05L258.12-17.05Q258.12-25.75 261.27-30.28 264.42-34.8 269.72-34.8L269.72-34.8ZM269.72-32.3Q265.67-32.3 263.42-28.6 261.17-24.9 261.17-17.05L261.17-17.05Q261.17-9.3 263.45-5.63 265.72-1.95 269.72-1.95L269.72-1.95Q273.87-1.95 276.07-5.58 278.27-9.2 278.27-17.1L278.27-17.1Q278.27-32.3 269.72-32.3L269.72-32.3ZM307.07 0L303.87 0 296.67-15.45 295.07-15.4 291.22-15.4 291.22 0 288.37 0 288.37-34.25 294.47-34.25Q305.62-34.25 305.62-24.95L305.62-24.95Q305.62-21.6 304.02-19.3 302.42-17 299.42-16L299.42-16 307.07 0ZM294.72-17.8Q298.77-17.8 300.65-19.53 302.52-21.25 302.52-24.95L302.52-24.95Q302.52-28.45 300.67-30.15 298.82-31.85 294.32-31.85L294.32-31.85 291.22-31.85 291.22-17.8 294.72-17.8ZM312.72-34.25L315.57-34.25 315.57 0 312.72 0 312.72-34.25ZM327.37-34.25L330.47-34.25 318.97-18.5 331.22 0 327.92 0 315.77-18.35 327.37-34.25Z" opacity="1" transform="matrix(1,0,0,1,0,0)" fill="#ffffff" class="undefined-text-0" data-fill-palette-color="primary" id="text-0"></path></svg></g></svg></g><g transform="matrix(1,0,0,1,0,52.30738424949153)"><svg viewBox="0 0 232.209792 7.659236929045242" height="7.659236929045242" width="232.209792"><g transform="matrix(1,0,0,1,0,0)"><svg width="232.209792" viewBox="1.2999999523162842 -35.650001525878906 1092.8599853515625 36.05000305175781" height="7.659236929045242" data-palette-color="#96a2fb"><path d="M34.7 0L31.55 0 27.5-9.4 8.5-9.4 4.45 0 1.3 0 16.6-35.25 19.4-35.25 34.7 0ZM18-31.6L9.65-12.1 26.35-12.1 18-31.6ZM67.8 0.4Q62.9 0.4 59.3-1.78 55.7-3.95 53.75-8.03 51.8-12.1 51.8-17.65L51.8-17.65Q51.8-23.2 53.75-27.28 55.7-31.35 59.3-33.5 62.9-35.65 67.8-35.65L67.8-35.65Q71.45-35.65 74.5-34.5 77.55-33.35 79.8-31.05L79.8-31.05 78.5-28.6Q76-30.9 73.47-31.9 70.95-32.9 67.84-32.9L67.84-32.9Q61.75-32.9 58.37-28.9 55-24.9 55-17.65L55-17.65Q55-10.35 58.35-6.35 61.7-2.35 67.84-2.35L67.84-2.35Q70.95-2.35 73.47-3.35 76-4.35 78.5-6.65L78.5-6.65 79.8-4.2Q77.55-1.9 74.5-0.75 71.45 0.4 67.8 0.4L67.8 0.4ZM100.84 0.4Q96.04 0.4 92.49-1.78 88.94-3.95 87.04-8.03 85.14-12.1 85.14-17.6L85.14-17.6Q85.14-23.15 87.04-27.23 88.94-31.3 92.47-33.48 95.99-35.65 100.84-35.65L100.84-35.65Q105.69-35.65 109.24-33.48 112.79-31.3 114.69-27.25 116.59-23.2 116.59-17.65L116.59-17.65Q116.59-12.1 114.69-8.03 112.79-3.95 109.24-1.78 105.69 0.4 100.84 0.4L100.84 0.4ZM100.84-2.35Q106.79-2.35 110.09-6.35 113.39-10.35 113.39-17.65L113.39-17.65Q113.39-24.95 110.12-28.93 106.84-32.9 100.84-32.9L100.84-32.9Q94.89-32.9 91.62-28.9 88.34-24.9 88.34-17.65L88.34-17.65Q88.34-10.4 91.62-6.38 94.89-2.35 100.84-2.35L100.84-2.35ZM149.09-5.25L149.09-35.25 151.99-35.25 151.99 0 149.59 0 127.24-30.05 127.24 0 124.34 0 124.34-35.25 126.79-35.25 149.09-5.25ZM185.84-5.25L185.84-35.25 188.74-35.25 188.74 0 186.34 0 163.99-30.05 163.99 0 161.09 0 161.09-35.25 163.54-35.25 185.84-5.25ZM219.59 0L197.84 0 197.84-35.25 219.59-35.25 219.59-32.6 200.89-32.6 200.89-19.25 218.59-19.25 218.59-16.55 200.89-16.55 200.89-2.65 219.59-2.65 219.59 0ZM241.18 0.4Q236.28 0.4 232.68-1.78 229.08-3.95 227.13-8.03 225.18-12.1 225.18-17.65L225.18-17.65Q225.18-23.2 227.13-27.28 229.08-31.35 232.68-33.5 236.28-35.65 241.18-35.65L241.18-35.65Q244.83-35.65 247.88-34.5 250.93-33.35 253.18-31.05L253.18-31.05 251.88-28.6Q249.38-30.9 246.86-31.9 244.33-32.9 241.23-32.9L241.23-32.9Q235.13-32.9 231.76-28.9 228.38-24.9 228.38-17.65L228.38-17.65Q228.38-10.35 231.73-6.35 235.08-2.35 241.23-2.35L241.23-2.35Q244.33-2.35 246.86-3.35 249.38-4.35 251.88-6.65L251.88-6.65 253.18-4.2Q250.93-1.9 247.88-0.75 244.83 0.4 241.18 0.4L241.18 0.4ZM271.63 0L268.58 0 268.58-32.55 255.93-32.55 255.93-35.25 284.23-35.25 284.23-32.55 271.63-32.55 271.63 0ZM311.13 0L289.38 0 289.38-35.25 311.13-35.25 311.13-32.6 292.43-32.6 292.43-19.25 310.13-19.25 310.13-16.55 292.43-16.55 292.43-2.65 311.13-2.65 311.13 0ZM318.33 0L318.33-35.25 329.68-35.25Q338.08-35.25 342.63-30.68 347.18-26.1 347.18-17.65L347.18-17.65Q347.18-9.2 342.6-4.6 338.03 0 329.68 0L329.68 0 318.33 0ZM321.43-2.7L329.53-2.7Q336.68-2.7 340.3-6.45 343.93-10.2 343.93-17.65L343.93-17.65Q343.93-32.55 329.53-32.55L329.53-32.55 321.43-32.55 321.43-2.7ZM392.22-5.25L392.22-35.25 395.12-35.25 395.12 0 392.72 0 370.37-30.05 370.37 0 367.47 0 367.47-35.25 369.92-35.25 392.22-5.25ZM425.97 0L404.22 0 404.22-35.25 425.97-35.25 425.97-32.6 407.27-32.6 407.27-19.25 424.97-19.25 424.97-16.55 407.27-16.55 407.27-2.65 425.97-2.65 425.97 0ZM444.02 0L440.97 0 440.97-32.55 428.32-32.55 428.32-35.25 456.62-35.25 456.62-32.55 444.02-32.55 444.02 0ZM497.51-4.4L508.11-35.25 511.16-35.25 498.91 0 496.21 0 485.61-30.4 475.01 0 472.36 0 460.06-35.25 463.16-35.25 473.76-4.3 484.46-35.25 486.86-35.2 497.51-4.4ZM531.16 0.4Q526.36 0.4 522.81-1.78 519.26-3.95 517.36-8.03 515.46-12.1 515.46-17.6L515.46-17.6Q515.46-23.15 517.36-27.23 519.26-31.3 522.78-33.48 526.31-35.65 531.16-35.65L531.16-35.65Q536.01-35.65 539.56-33.48 543.11-31.3 545.01-27.25 546.91-23.2 546.91-17.65L546.91-17.65Q546.91-12.1 545.01-8.03 543.11-3.95 539.56-1.78 536.01 0.4 531.16 0.4L531.16 0.4ZM531.16-2.35Q537.11-2.35 540.41-6.35 543.71-10.35 543.71-17.65L543.71-17.65Q543.71-24.95 540.43-28.93 537.16-32.9 531.16-32.9L531.16-32.9Q525.21-32.9 521.93-28.9 518.66-24.9 518.66-17.65L518.66-17.65Q518.66-10.4 521.93-6.38 525.21-2.35 531.16-2.35L531.16-2.35ZM575.36-11.8L581.66 0 578.26 0 572.31-11.3Q571.11-13.6 569.51-14.45 567.91-15.3 565.11-15.3L565.11-15.3 557.76-15.3 557.76 0 554.66 0 554.66-35.25 568.76-35.25Q574.31-35.25 577.31-32.73 580.31-30.2 580.31-25.35L580.31-25.35Q580.31-21.25 577.93-18.78 575.56-16.3 571.16-15.75L571.16-15.75Q572.46-15.35 573.48-14.38 574.51-13.4 575.36-11.8L575.36-11.8ZM557.71-17.95L568.56-17.95Q577.26-17.95 577.26-25.4L577.26-25.4Q577.26-29.05 575.11-30.83 572.96-32.6 568.56-32.6L568.56-32.6 557.71-32.6 557.71-17.95ZM594.85-18.05L614.95 0 610.8 0 591.85-16.85 591.85 0 588.75 0 588.75-35.25 591.85-35.25 591.85-18.9 609.85-35.25 613.9-35.25 594.85-18.05ZM635.1 0L632 0 632-35.25 653.25-35.25 653.25-32.6 635.1-32.6 635.1-19.25 652.25-19.25 652.25-16.55 635.1-16.55 635.1 0ZM673.05 0.4Q668.25 0.4 664.7-1.78 661.15-3.95 659.25-8.03 657.35-12.1 657.35-17.6L657.35-17.6Q657.35-23.15 659.25-27.23 661.15-31.3 664.67-33.48 668.2-35.65 673.05-35.65L673.05-35.65Q677.9-35.65 681.45-33.48 685-31.3 686.9-27.25 688.8-23.2 688.8-17.65L688.8-17.65Q688.8-12.1 686.9-8.03 685-3.95 681.45-1.78 677.9 0.4 673.05 0.4L673.05 0.4ZM673.05-2.35Q679-2.35 682.3-6.35 685.6-10.35 685.6-17.65L685.6-17.65Q685.6-24.95 682.32-28.93 679.05-32.9 673.05-32.9L673.05-32.9Q667.1-32.9 663.82-28.9 660.55-24.9 660.55-17.65L660.55-17.65Q660.55-10.4 663.82-6.38 667.1-2.35 673.05-2.35L673.05-2.35ZM717.24-11.8L723.54 0 720.14 0 714.19-11.3Q712.99-13.6 711.39-14.45 709.79-15.3 706.99-15.3L706.99-15.3 699.64-15.3 699.64 0 696.54 0 696.54-35.25 710.64-35.25Q716.19-35.25 719.19-32.73 722.19-30.2 722.19-25.35L722.19-25.35Q722.19-21.25 719.82-18.78 717.44-16.3 713.04-15.75L713.04-15.75Q714.34-15.35 715.37-14.38 716.39-13.4 717.24-11.8L717.24-11.8ZM699.59-17.95L710.44-17.95Q719.14-17.95 719.14-25.4L719.14-25.4Q719.14-29.05 716.99-30.83 714.84-32.6 710.44-32.6L710.44-32.6 699.59-32.6 699.59-17.95ZM773.39 0L770.24 0 766.19-9.4 747.19-9.4 743.14 0 739.99 0 755.29-35.25 758.09-35.25 773.39 0ZM756.69-31.6L748.34-12.1 765.04-12.1 756.69-31.6ZM800.54 0L779.24 0 779.24-35.25 782.34-35.25 782.34-2.7 800.54-2.7 800.54 0ZM827.18 0L805.88 0 805.88-35.25 808.98-35.25 808.98-2.7 827.18-2.7 827.18 0ZM856.08 0.4Q851.93 0.4 848.73-0.73 845.53-1.85 843.03-4.2L843.03-4.2 844.33-6.65Q846.98-4.3 849.65-3.33 852.33-2.35 856.08-2.35L856.08-2.35Q860.53-2.35 863-4.17 865.48-6 865.48-9.3L865.48-9.3Q865.48-11.25 864.28-12.48 863.08-13.7 861.23-14.38 859.38-15.05 856.28-15.75L856.28-15.75Q852.18-16.65 849.65-17.6 847.13-18.55 845.38-20.48 843.63-22.4 843.63-25.65L843.63-25.65Q843.63-28.65 845.18-30.9 846.73-33.15 849.55-34.4 852.38-35.65 856.18-35.65L856.18-35.65Q859.78-35.65 862.85-34.48 865.93-33.3 868.18-31.05L868.18-31.05 866.88-28.6Q864.38-30.85 861.83-31.88 859.28-32.9 856.18-32.9L856.18-32.9Q851.73-32.9 849.23-31 846.73-29.1 846.73-25.7L846.73-25.7Q846.73-22.75 848.9-21.33 851.08-19.9 855.28-18.9L855.28-18.9 856.58-18.6Q860.63-17.6 862.98-16.75 865.33-15.9 866.95-14.13 868.58-12.35 868.58-9.35L868.58-9.35Q868.58-6.45 867.03-4.25 865.48-2.05 862.65-0.83 859.83 0.4 856.08 0.4L856.08 0.4ZM886.48 0L883.43 0 883.43-32.55 870.78-32.55 870.78-35.25 899.08-35.25 899.08-32.55 886.48-32.55 886.48 0ZM917.67 0.4Q910.92 0.4 907.45-3.15 903.97-6.7 903.97-13.6L903.97-13.6 903.97-35.25 907.07-35.25 907.07-13.25Q907.07-2.35 917.67-2.35L917.67-2.35Q922.92-2.35 925.6-5.1 928.27-7.85 928.27-13.25L928.27-13.25 928.27-35.25 931.32-35.25 931.32-13.6Q931.32-6.7 927.85-3.15 924.37 0.4 917.67 0.4L917.67 0.4ZM940.22 0L940.22-35.25 951.57-35.25Q959.97-35.25 964.52-30.68 969.07-26.1 969.07-17.65L969.07-17.65Q969.07-9.2 964.5-4.6 959.92 0 951.57 0L951.57 0 940.22 0ZM943.32-2.7L951.42-2.7Q958.57-2.7 962.2-6.45 965.82-10.2 965.82-17.65L965.82-17.65Q965.82-32.55 951.42-32.55L951.42-32.55 943.32-32.55 943.32-2.7ZM998.52 0L976.77 0 976.77-35.25 998.52-35.25 998.52-32.6 979.82-32.6 979.82-19.25 997.52-19.25 997.52-16.55 979.82-16.55 979.82-2.65 998.52-2.65 998.52 0ZM1030.47-5.25L1030.47-35.25 1033.37-35.25 1033.37 0 1030.97 0 1008.62-30.05 1008.62 0 1005.72 0 1005.72-35.25 1008.17-35.25 1030.47-5.25ZM1054.21 0L1051.16 0 1051.16-32.55 1038.51-32.55 1038.51-35.25 1066.81-35.25 1066.81-32.55 1054.21-32.55 1054.21 0ZM1081.66 0.4Q1077.51 0.4 1074.31-0.73 1071.11-1.85 1068.61-4.2L1068.61-4.2 1069.91-6.65Q1072.56-4.3 1075.24-3.33 1077.91-2.35 1081.66-2.35L1081.66-2.35Q1086.11-2.35 1088.59-4.17 1091.06-6 1091.06-9.3L1091.06-9.3Q1091.06-11.25 1089.86-12.48 1088.66-13.7 1086.81-14.38 1084.96-15.05 1081.86-15.75L1081.86-15.75Q1077.76-16.65 1075.24-17.6 1072.71-18.55 1070.96-20.48 1069.21-22.4 1069.21-25.65L1069.21-25.65Q1069.21-28.65 1070.76-30.9 1072.31-33.15 1075.14-34.4 1077.96-35.65 1081.76-35.65L1081.76-35.65Q1085.36-35.65 1088.44-34.48 1091.51-33.3 1093.76-31.05L1093.76-31.05 1092.46-28.6Q1089.96-30.85 1087.41-31.88 1084.86-32.9 1081.76-32.9L1081.76-32.9Q1077.31-32.9 1074.81-31 1072.31-29.1 1072.31-25.7L1072.31-25.7Q1072.31-22.75 1074.49-21.33 1076.66-19.9 1080.86-18.9L1080.86-18.9 1082.16-18.6Q1086.21-17.6 1088.56-16.75 1090.91-15.9 1092.54-14.13 1094.16-12.35 1094.16-9.35L1094.16-9.35Q1094.16-6.45 1092.61-4.25 1091.06-2.05 1088.24-0.83 1085.41 0.4 1081.66 0.4L1081.66 0.4Z" opacity="1" transform="matrix(1,0,0,1,0,0)" fill="#ffffff" class="undefined-text-1" data-fill-palette-color="secondary" id="text-1"></path></svg></g></svg></g></svg></g></svg></g><g><svg viewBox="0 0 51.62021060046922 82.87387046873782" height="82.87387046873782" width="51.62021060046922"><g><svg xmlns="http://www.w3.org/2000/svg" xmlns:xlink="http://www.w3.org/1999/xlink" version="1.1" x="0" y="0" viewBox="29.81100082397461 8.785850524902344 44.35701370239258 71.21314239501953" enable-background="new 0 0 100 100" xml:space="preserve" height="82.87387046873782" width="51.62021060046922" class="icon-icon-0" data-fill-palette-color="accent" id="icon-0"><g fill="#fb806f" data-fill-palette-color="accent"><path d="M49.999 47.08c-11.145 0-20.188 11.061-20.188 24.689 0 4.551 3.011 8.23 6.73 8.23h26.916c3.72 0 6.73-3.68 6.73-8.23C70.188 58.141 61.146 47.08 49.999 47.08z" fill="#ffffff" data-fill-palette-color="accent"></path><path d="M73.699 20.826L55.77 8.96c-0.231-0.155-0.519-0.21-0.793-0.151l-19.859 4.193c-0.4 0.084-0.715 0.396-0.805 0.798l-0.119 0.537c-0.094 0.423 0.082 0.86 0.445 1.1l8.314 5.503-0.339 1.533c-3.004 2.252-4.957 5.83-4.957 9.871 0 6.816 5.529 12.346 12.342 12.346 6.814 0 12.344-5.529 12.344-12.346 0-1.464-0.269-2.863-0.737-4.166 0.185-0.236 0.312-0.488 0.371-0.755l0.414-1.876 5.364-1.133c0.667 0.943 1.103 2.088 1.212 3.547-0.545 0.282-0.922 0.844-0.922 1.5 0 0.551 0.267 1.034 0.674 1.344-0.461 2.352-1.076 6.673 0.15 8.589 0.361 0.563 0.873 0.924 1.479 1.039 0.048 0.009 0.096 0.014 0.144 0.014 0.356 0 0.674-0.253 0.744-0.617 0.078-0.411-0.192-0.809-0.604-0.887-0.133-0.025-0.308-0.09-0.485-0.367-0.433-0.676-0.534-2.01-0.454-3.516 0.374 1.168 0.949 2.219 1.836 2.803 0.352 0.232 0.821 0.133 1.051-0.217s0.133-0.82-0.217-1.051c-1.192-0.785-1.695-3.477-1.803-5.66 0.52-0.289 0.875-0.837 0.875-1.474 0-0.667-0.389-1.238-0.949-1.514-0.1-1.555-0.504-2.82-1.128-3.871l3.861-0.816c0.401-0.084 0.716-0.396 0.805-0.797l0.119-0.537C74.237 21.503 74.061 21.064 73.699 20.826zM53.145 16.721c0.017-0.137 0.156-0.249 0.415-0.304 0.516-0.108 1.313 0.054 1.78 0.362 0.233 0.154 0.34 0.316 0.322 0.454l-0.076 0.376c-0.018 0.137-0.156 0.248-0.414 0.303-0.518 0.109-1.313-0.053-1.78-0.361-0.233-0.155-0.34-0.317-0.323-0.454L53.145 16.721z" fill="#ffffff" data-fill-palette-color="accent"></path></g></svg></g></svg></g></svg></g><defs></defs></svg><rect width="395.52" height="71.70444130775232" fill="none" stroke="none" visibility="hidden"></rect></g></svg></g></svg>