<svg xmlns="http://www.w3.org/2000/svg" version="1.1" xmlns:xlink="http://www.w3.org/1999/xlink" xmlns:svgjs="http://svgjs.dev/svgjs" width="1000" height="1000" viewBox="0 0 1000 1000"><rect width="1000" height="1000" fill="#000000"></rect><g transform="matrix(0.7,0,0,0.7,149.57575757575756,436.4499604374699)"><svg viewBox="0 0 396 72" data-background-color="#457dbb" preserveAspectRatio="xMidYMid meet" height="181" width="1000" xmlns="http://www.w3.org/2000/svg" xmlns:xlink="http://www.w3.org/1999/xlink"><g id="tight-bounds" transform="matrix(1,0,0,1,0.2400000000000091,0.11367678375822265)"><svg viewBox="0 0 395.52 71.77264643248357" height="71.77264643248357" width="395.52"><g><svg viewBox="0 0 457.18564937069976 82.9627426332136" height="71.77264643248357" width="395.52"><g transform="matrix(1,0,0,1,61.66564937069978,11.465907266963676)"><svg viewBox="0 0 395.52 60.03092809928624" height="60.03092809928624" width="395.52"><g><svg viewBox="0 0 395.52 60.03092809928624" height="60.03092809928624" width="395.52"><g><svg viewBox="0 0 395.52 42.31728813559322" height="42.31728813559322" width="395.52"><g transform="matrix(1,0,0,1,0,0)"><svg width="395.52" viewBox="0.85 -34.8 330.37 35.349999999999994" height="42.31728813559322" data-palette-color="#30017e"><path d="M23.05 0L20.1 0 17.7-9.4 6.1-9.4 3.7 0 0.85 0 10.15-34.25 13.75-34.25 23.05 0ZM11.9-31.85L6.75-11.8 17.05-11.8 11.9-31.85ZM28.3-34.25L31.15-34.25 31.15-2.6 42.8-2.6 42.45 0 28.3 0 28.3-34.25ZM66.2-34.25L66.2-8.9Q66.2-4.8 63.77-2.13 61.35 0.55 56.8 0.55L56.8 0.55Q52.2 0.55 49.8-2.1 47.4-4.75 47.4-8.9L47.4-8.9 47.4-34.25 50.25-34.25 50.25-9.15Q50.25-5.75 51.87-3.88 53.5-2 56.8-2L56.8-2Q60.1-2 61.7-3.9 63.3-5.8 63.3-9.15L63.3-9.15 63.3-34.25 66.2-34.25ZM96.64-34.25L99.29 0 96.59 0 95.34-16.45Q94.79-23.4 94.39-31.4L94.39-31.4 87.54-4.05 84.79-4.05 77.64-31.4Q77.64-28.05 76.94-18.35L76.94-18.35Q76.94-17.75 76.84-16.55L76.84-16.55 75.69 0 72.99 0 75.59-34.25 79.49-34.25 86.19-7.5 92.69-34.25 96.64-34.25ZM125.44-34.25L125.44 0 121.64 0 108.94-31Q109.34-26.3 109.34-19.35L109.34-19.35 109.34 0 106.64 0 106.64-34.25 110.44-34.25 123.09-3.25Q122.69-9.25 122.69-13.3L122.69-13.3 122.69-34.25 125.44-34.25ZM134.19-34.25L137.04-34.25 137.04 0 134.19 0 134.19-34.25ZM175.88-34.25L175.88 0 172.08 0 159.38-31Q159.78-26.3 159.78-19.35L159.78-19.35 159.78 0 157.08 0 157.08-34.25 160.88-34.25 173.53-3.25Q173.13-9.25 173.13-13.3L173.13-13.3 173.13-34.25 175.88-34.25ZM184.63-34.25L199.18-34.25 198.88-31.8 187.48-31.8 187.48-18.95 197.33-18.95 197.33-16.55 187.48-16.55 187.48-2.45 199.43-2.45 199.43 0 184.63 0 184.63-34.25ZM201.83-34.25L221.33-34.25 220.98-31.75 212.93-31.75 212.93 0 210.03 0 210.03-31.75 201.83-31.75 201.83-34.25ZM251.33-34.25L254.08-34.25 248.08 0 244.33 0 238.53-30.95 232.73 0 229.08 0 223.08-34.25 225.88-34.25 230.98-2.7 236.88-34.25 240.23-34.25 246.18-2.7 251.33-34.25ZM269.72-34.8Q275.12-34.8 278.22-30.38 281.32-25.95 281.32-17.1L281.32-17.1Q281.32-8.4 278.25-3.93 275.17 0.55 269.72 0.55L269.72 0.55Q264.37 0.55 261.25-3.9 258.12-8.35 258.12-17.05L258.12-17.05Q258.12-25.75 261.27-30.28 264.42-34.8 269.72-34.8L269.72-34.8ZM269.72-32.3Q265.67-32.3 263.42-28.6 261.17-24.9 261.17-17.05L261.17-17.05Q261.17-9.3 263.45-5.63 265.72-1.95 269.72-1.95L269.72-1.95Q273.87-1.95 276.07-5.58 278.27-9.2 278.27-17.1L278.27-17.1Q278.27-32.3 269.72-32.3L269.72-32.3ZM307.07 0L303.87 0 296.67-15.45 295.07-15.4 291.22-15.4 291.22 0 288.37 0 288.37-34.25 294.47-34.25Q305.62-34.25 305.62-24.95L305.62-24.95Q305.62-21.6 304.02-19.3 302.42-17 299.42-16L299.42-16 307.07 0ZM294.72-17.8Q298.77-17.8 300.65-19.53 302.52-21.25 302.52-24.95L302.52-24.95Q302.52-28.45 300.67-30.15 298.82-31.85 294.32-31.85L294.32-31.85 291.22-31.85 291.22-17.8 294.72-17.8ZM312.72-34.25L315.57-34.25 315.57 0 312.72 0 312.72-34.25ZM327.37-34.25L330.47-34.25 318.97-18.5 331.22 0 327.92 0 315.77-18.35 327.37-34.25Z" opacity="1" transform="matrix(1,0,0,1,0,0)" fill="#ffffff" class="undefined-text-0" data-fill-palette-color="primary" id="text-0"></path></svg></g></svg></g><g transform="matrix(1,0,0,1,0,52.30738424949153)"><svg viewBox="0 0 232.209792 7.723543849794711" height="7.723543849794711" width="232.209792"><g transform="matrix(1,0,0,1,0,0)"><svg width="232.209792" viewBox="-0.4 -35.65 1083.75 36.05" height="7.723543849794711" data-palette-color="#96a2fb"><path d="M26.45-35.25L29.9-35.25 16.25-16.85 16.25 0 13.2 0 13.2-16.95-0.4-35.25 3.15-35.25 14.8-19.45 26.45-35.25ZM59.65-19.25L59.65-35.25 62.7-35.25 62.7 0 59.65 0 59.65-16.55 37.15-16.55 37.15 0 34.1 0 34.1-35.25 37.15-35.25 37.15-19.25 59.65-19.25ZM71.8 0L71.8-35.25 83.15-35.25Q91.55-35.25 96.09-30.68 100.65-26.1 100.65-17.65L100.65-17.65Q100.65-9.2 96.07-4.6 91.5 0 83.15 0L83.15 0 71.8 0ZM74.9-2.7L83-2.7Q90.15-2.7 93.77-6.45 97.4-10.2 97.4-17.65L97.4-17.65Q97.4-32.55 83-32.55L83-32.55 74.9-32.55 74.9-2.7ZM111.44 0L108.34 0 108.34-35.25 111.44-35.25 111.44 0ZM131.49 0.4Q127.34 0.4 124.14-0.73 120.94-1.85 118.44-4.2L118.44-4.2 119.74-6.65Q122.39-4.3 125.07-3.33 127.74-2.35 131.49-2.35L131.49-2.35Q135.94-2.35 138.42-4.17 140.89-6 140.89-9.3L140.89-9.3Q140.89-11.25 139.69-12.48 138.49-13.7 136.64-14.38 134.79-15.05 131.69-15.75L131.69-15.75Q127.59-16.65 125.07-17.6 122.54-18.55 120.79-20.48 119.04-22.4 119.04-25.65L119.04-25.65Q119.04-28.65 120.59-30.9 122.14-33.15 124.97-34.4 127.79-35.65 131.59-35.65L131.59-35.65Q135.19-35.65 138.27-34.48 141.34-33.3 143.59-31.05L143.59-31.05 142.29-28.6Q139.79-30.85 137.24-31.88 134.69-32.9 131.59-32.9L131.59-32.9Q127.14-32.9 124.64-31 122.14-29.1 122.14-25.7L122.14-25.7Q122.14-22.75 124.32-21.33 126.49-19.9 130.69-18.9L130.69-18.9 131.99-18.6Q136.04-17.6 138.39-16.75 140.74-15.9 142.37-14.13 143.99-12.35 143.99-9.35L143.99-9.35Q143.99-6.45 142.44-4.25 140.89-2.05 138.07-0.83 135.24 0.4 131.49 0.4L131.49 0.4ZM161.89 0L158.84 0 158.84-32.55 146.19-32.55 146.19-35.25 174.49-35.25 174.49-32.55 161.89-32.55 161.89 0ZM201.39 0L179.64 0 179.64-35.25 201.39-35.25 201.39-32.6 182.69-32.6 182.69-19.25 200.39-19.25 200.39-16.55 182.69-16.55 182.69-2.65 201.39-2.65 201.39 0ZM219.43 0L216.38 0 216.38-32.55 203.73-32.55 203.73-35.25 232.03-35.25 232.03-32.55 219.43-32.55 219.43 0ZM248.93 0L245.88 0 245.88-32.55 233.23-32.55 233.23-35.25 261.53-35.25 261.53-32.55 248.93-32.55 248.93 0ZM288.88-35.25L292.33-35.25 278.68-16.85 278.68 0 275.63 0 275.63-16.95 262.03-35.25 265.58-35.25 277.23-19.45 288.88-35.25ZM321.62-3.95L335.07-35.25 338.22-35.25 322.97 0 320.17 0 304.92-35.25 308.12-35.25 321.62-3.95ZM364.87 0L343.12 0 343.12-35.25 364.87-35.25 364.87-32.6 346.17-32.6 346.17-19.25 363.87-19.25 363.87-16.55 346.17-16.55 346.17-2.65 364.87-2.65 364.87 0ZM392.77-11.8L399.07 0 395.67 0 389.72-11.3Q388.52-13.6 386.92-14.45 385.32-15.3 382.52-15.3L382.52-15.3 375.17-15.3 375.17 0 372.07 0 372.07-35.25 386.17-35.25Q391.72-35.25 394.72-32.73 397.72-30.2 397.72-25.35L397.72-25.35Q397.72-21.25 395.34-18.78 392.97-16.3 388.57-15.75L388.57-15.75Q389.87-15.35 390.89-14.38 391.92-13.4 392.77-11.8L392.77-11.8ZM375.12-17.95L385.97-17.95Q394.67-17.95 394.67-25.4L394.67-25.4Q394.67-29.05 392.52-30.83 390.37-32.6 385.97-32.6L385.97-32.6 375.12-32.6 375.12-17.95ZM412.27-18.05L432.37 0 428.22 0 409.27-16.85 409.27 0 406.17 0 406.17-35.25 409.27-35.25 409.27-18.9 427.27-35.25 431.32-35.25 412.27-18.05ZM442.91-18.05L463.01 0 458.86 0 439.91-16.85 439.91 0 436.81 0 436.81-35.25 439.91-35.25 439.91-18.9 457.91-35.25 461.96-35.25 442.91-18.05ZM480.31 0.4Q475.51 0.4 471.96-1.78 468.41-3.95 466.51-8.03 464.61-12.1 464.61-17.6L464.61-17.6Q464.61-23.15 466.51-27.23 468.41-31.3 471.94-33.48 475.46-35.65 480.31-35.65L480.31-35.65Q485.16-35.65 488.71-33.48 492.26-31.3 494.16-27.25 496.06-23.2 496.06-17.65L496.06-17.65Q496.06-12.1 494.16-8.03 492.26-3.95 488.71-1.78 485.16 0.4 480.31 0.4L480.31 0.4ZM480.31-2.35Q486.26-2.35 489.56-6.35 492.86-10.35 492.86-17.65L492.86-17.65Q492.86-24.95 489.59-28.93 486.31-32.9 480.31-32.9L480.31-32.9Q474.36-32.9 471.09-28.9 467.81-24.9 467.81-17.65L467.81-17.65Q467.81-10.4 471.09-6.38 474.36-2.35 480.31-2.35L480.31-2.35ZM522.51-18.05L542.61 0 538.46 0 519.51-16.85 519.51 0 516.41 0 516.41-35.25 519.51-35.25 519.51-18.9 537.51-35.25 541.56-35.25 522.51-18.05ZM576.25 0L573.1 0 569.05-9.4 550.05-9.4 546 0 542.85 0 558.15-35.25 560.95-35.25 576.25 0ZM559.55-31.6L551.2-12.1 567.9-12.1 559.55-31.6ZM585.2 0L582.1 0 582.1-35.25 585.2-35.25 585.2 0ZM600.4-18.05L620.5 0 616.35 0 597.4-16.85 597.4 0 594.3 0 594.3-35.25 597.4-35.25 597.4-18.9 615.4-35.25 619.45-35.25 600.4-18.05ZM628.04 0L624.94 0 624.94-35.25 628.04-35.25 628.04 0ZM658.44 0L637.14 0 637.14-35.25 640.24-35.25 640.24-2.7 658.44-2.7 658.44 0ZM685.09 0L663.79 0 663.79-35.25 666.89-35.25 666.89-2.7 685.09-2.7 685.09 0ZM712.19 0L690.44 0 690.44-35.25 712.19-35.25 712.19-32.6 693.49-32.6 693.49-19.25 711.19-19.25 711.19-16.55 693.49-16.55 693.49-2.65 712.19-2.65 712.19 0ZM746.33 0.4Q741.53 0.4 737.98-1.78 734.43-3.95 732.53-8.03 730.63-12.1 730.63-17.6L730.63-17.6Q730.63-23.15 732.53-27.23 734.43-31.3 737.96-33.48 741.48-35.65 746.33-35.65L746.33-35.65Q751.18-35.65 754.73-33.48 758.28-31.3 760.18-27.25 762.08-23.2 762.08-17.65L762.08-17.65Q762.08-12.1 760.18-8.03 758.28-3.95 754.73-1.78 751.18 0.4 746.33 0.4L746.33 0.4ZM746.33-2.35Q752.28-2.35 755.58-6.35 758.88-10.35 758.88-17.65L758.88-17.65Q758.88-24.95 755.61-28.93 752.33-32.9 746.33-32.9L746.33-32.9Q740.38-32.9 737.11-28.9 733.83-24.9 733.83-17.65L733.83-17.65Q733.83-10.4 737.11-6.38 740.38-2.35 746.33-2.35L746.33-2.35ZM769.83 0L769.83-35.25 783.18-35.25Q788.68-35.25 791.7-32.6 794.73-29.95 794.73-25.1L794.73-25.1Q794.73-20.2 791.68-17.53 788.63-14.85 783.18-14.85L783.18-14.85 772.93-14.85 772.93 0 769.83 0ZM772.93-17.5L782.98-17.5Q791.63-17.5 791.63-25.1L791.63-25.1Q791.63-32.6 782.98-32.6L782.98-32.6 772.93-32.6 772.93-17.5ZM804.83 0L801.73 0 801.73-35.25 804.83-35.25 804.83 0ZM824.87 0.4Q820.72 0.4 817.52-0.73 814.32-1.85 811.82-4.2L811.82-4.2 813.12-6.65Q815.77-4.3 818.45-3.33 821.12-2.35 824.87-2.35L824.87-2.35Q829.32-2.35 831.8-4.17 834.27-6 834.27-9.3L834.27-9.3Q834.27-11.25 833.07-12.48 831.87-13.7 830.02-14.38 828.17-15.05 825.07-15.75L825.07-15.75Q820.97-16.65 818.45-17.6 815.92-18.55 814.17-20.48 812.42-22.4 812.42-25.65L812.42-25.65Q812.42-28.65 813.97-30.9 815.52-33.15 818.35-34.4 821.17-35.65 824.97-35.65L824.97-35.65Q828.57-35.65 831.65-34.48 834.72-33.3 836.97-31.05L836.97-31.05 835.67-28.6Q833.17-30.85 830.62-31.88 828.07-32.9 824.97-32.9L824.97-32.9Q820.52-32.9 818.02-31 815.52-29.1 815.52-25.7L815.52-25.7Q815.52-22.75 817.7-21.33 819.87-19.9 824.07-18.9L824.07-18.9 825.37-18.6Q829.42-17.6 831.77-16.75 834.12-15.9 835.75-14.13 837.37-12.35 837.37-9.35L837.37-9.35Q837.37-6.45 835.82-4.25 834.27-2.05 831.45-0.83 828.62 0.4 824.87 0.4L824.87 0.4ZM850.37-18.05L870.47 0 866.32 0 847.37-16.85 847.37 0 844.27 0 844.27-35.25 847.37-35.25 847.37-18.9 865.37-35.25 869.42-35.25 850.37-18.05ZM896.67 0L874.92 0 874.92-35.25 896.67-35.25 896.67-32.6 877.97-32.6 877.97-19.25 895.67-19.25 895.67-16.55 877.97-16.55 877.97-2.65 896.67-2.65 896.67 0ZM925.17 0L903.87 0 903.87-35.25 906.97-35.25 906.97-2.7 925.17-2.7 925.17 0ZM933.61 0L930.51 0 930.51-35.25 933.61-35.25 933.61 0ZM937.96 0.3L937.71-2.3 940.46-2.5Q943.16-2.7 944.61-4.48 946.06-6.25 946.06-9.2L946.06-9.2 946.06-35.25 949.16-35.25 949.16-9.1Q949.16-4.9 947.01-2.53 944.86-0.15 940.81 0.1L940.81 0.1 937.96 0.3ZM972.61 0.4Q967.81 0.4 964.26-1.78 960.71-3.95 958.81-8.03 956.91-12.1 956.91-17.6L956.91-17.6Q956.91-23.15 958.81-27.23 960.71-31.3 964.23-33.48 967.76-35.65 972.61-35.65L972.61-35.65Q977.46-35.65 981.01-33.48 984.56-31.3 986.46-27.25 988.36-23.2 988.36-17.65L988.36-17.65Q988.36-12.1 986.46-8.03 984.56-3.95 981.01-1.78 977.46 0.4 972.61 0.4L972.61 0.4ZM972.61-2.35Q978.56-2.35 981.86-6.35 985.16-10.35 985.16-17.65L985.16-17.65Q985.16-24.95 981.88-28.93 978.61-32.9 972.61-32.9L972.61-32.9Q966.66-32.9 963.38-28.9 960.11-24.9 960.11-17.65L960.11-17.65Q960.11-10.4 963.38-6.38 966.66-2.35 972.61-2.35L972.61-2.35ZM999.21 0L996.11 0 996.11-35.25 999.21-35.25 999.21 0ZM1029.6 0L1008.3 0 1008.3-35.25 1011.4-35.25 1011.4-2.7 1029.6-2.7 1029.6 0ZM1056.25 0L1034.95 0 1034.95-35.25 1038.05-35.25 1038.05-2.7 1056.25-2.7 1056.25 0ZM1083.35 0L1061.6 0 1061.6-35.25 1083.35-35.25 1083.35-32.6 1064.65-32.6 1064.65-19.25 1082.35-19.25 1082.35-16.55 1064.65-16.55 1064.65-2.65 1083.35-2.65 1083.35 0Z" opacity="1" transform="matrix(1,0,0,1,0,0)" fill="#ffffff" class="undefined-text-1" data-fill-palette-color="secondary" id="text-1"></path></svg></g></svg></g></svg></g></svg></g><g><svg viewBox="0 0 51.67555325680148 82.9627426332136" height="82.9627426332136" width="51.67555325680148"><g><svg xmlns="http://www.w3.org/2000/svg" xmlns:xlink="http://www.w3.org/1999/xlink" version="1.1" x="0" y="0" viewBox="29.811000000000003 8.785850117612409 44.357006561384466 71.2131498823876" enable-background="new 0 0 100 100" xml:space="preserve" height="82.9627426332136" width="51.67555325680148" class="icon-icon-0" data-fill-palette-color="accent" id="icon-0"><g fill="#fb806f" data-fill-palette-color="accent"><path d="M49.999 47.08c-11.145 0-20.188 11.061-20.188 24.689 0 4.551 3.011 8.23 6.73 8.23h26.916c3.72 0 6.73-3.68 6.73-8.23C70.188 58.141 61.146 47.08 49.999 47.08z" fill="#ffffff" data-fill-palette-color="accent"></path><path d="M73.699 20.826L55.77 8.96c-0.231-0.155-0.519-0.21-0.793-0.151l-19.859 4.193c-0.4 0.084-0.715 0.396-0.805 0.798l-0.119 0.537c-0.094 0.423 0.082 0.86 0.445 1.1l8.314 5.503-0.339 1.533c-3.004 2.252-4.957 5.83-4.957 9.871 0 6.816 5.529 12.346 12.342 12.346 6.814 0 12.344-5.529 12.344-12.346 0-1.464-0.269-2.863-0.737-4.166 0.185-0.236 0.312-0.488 0.371-0.755l0.414-1.876 5.364-1.133c0.667 0.943 1.103 2.088 1.212 3.547-0.545 0.282-0.922 0.844-0.922 1.5 0 0.551 0.267 1.034 0.674 1.344-0.461 2.352-1.076 6.673 0.15 8.589 0.361 0.563 0.873 0.924 1.479 1.039 0.048 0.009 0.096 0.014 0.144 0.014 0.356 0 0.674-0.253 0.744-0.617 0.078-0.411-0.192-0.809-0.604-0.887-0.133-0.025-0.308-0.09-0.485-0.367-0.433-0.676-0.534-2.01-0.454-3.516 0.374 1.168 0.949 2.219 1.836 2.803 0.352 0.232 0.821 0.133 1.051-0.217s0.133-0.82-0.217-1.051c-1.192-0.785-1.695-3.477-1.803-5.66 0.52-0.289 0.875-0.837 0.875-1.474 0-0.667-0.389-1.238-0.949-1.514-0.1-1.555-0.504-2.82-1.128-3.871l3.861-0.816c0.401-0.084 0.716-0.396 0.805-0.797l0.119-0.537C74.237 21.503 74.061 21.064 73.699 20.826zM53.145 16.721c0.017-0.137 0.156-0.249 0.415-0.304 0.516-0.108 1.313 0.054 1.78 0.362 0.233 0.154 0.34 0.316 0.322 0.454l-0.076 0.376c-0.018 0.137-0.156 0.248-0.414 0.303-0.518 0.109-1.313-0.053-1.78-0.361-0.233-0.155-0.34-0.317-0.323-0.454L53.145 16.721z" fill="#ffffff" data-fill-palette-color="accent"></path></g></svg></g></svg></g></svg></g><defs></defs></svg><rect width="395.52" height="71.77264643248357" fill="none" stroke="none" visibility="hidden"></rect></g></svg></g></svg>